<svg width="10" height="10" viewBox="0 0 10 10" fill="none" xmlns="http://www.w3.org/2000/svg">
<path fill-rule="evenodd" clip-rule="evenodd" d="M2.12016 3.12499H3.75V3.74999H1.25V1.24999H1.875V2.40153C2.96973 1.08636 4.77099 0.597812 6.38022 1.17959C7.98945 1.76137 9.06187 3.28883 9.0625 4.99999H8.4375C8.4379 3.47827 7.43751 2.13747 5.97869 1.70449C4.51986 1.27151 2.94999 1.84945 2.12016 3.12499ZM7.87984 6.875H6.25V6.25H8.75V8.74999H8.125V7.59846C7.03027 8.91363 5.22901 9.40218 3.61978 8.8204C2.01055 8.23862 0.938132 6.71116 0.9375 5H1.5625C1.5621 6.52172 2.56249 7.86252 4.02131 8.2955C5.48013 8.72848 7.05001 8.15054 7.87984 6.875Z" fill="white"/>
</svg>
