<svg width="23" height="27" viewBox="0 0 23 27" fill="none" xmlns="http://www.w3.org/2000/svg">
<path fill-rule="evenodd" clip-rule="evenodd" d="M22.75 7.8125V23.25C22.75 24.112 22.4076 24.9386 21.7981 25.5481C21.1886 26.1576 20.362 26.5 19.5 26.5H17.875V24.875H19.5C19.931 24.875 20.3443 24.7038 20.649 24.399C20.9538 24.0943 21.125 23.681 21.125 23.25V7.8125H17.875C17.2285 7.8125 16.6085 7.55569 16.1514 7.09857C15.6943 6.64145 15.4375 6.02147 15.4375 5.375V2.125H6.5C6.06902 2.125 5.6557 2.2962 5.35095 2.60095C5.0462 2.9057 4.875 3.31902 4.875 3.75V18.375H3.25V3.75C3.25 2.88805 3.59241 2.0614 4.2019 1.4519C4.8114 0.84241 5.63805 0.5 6.5 0.5L15.4375 0.5L22.75 7.8125ZM2.6 19.7563H0V26.2546H1.28538V24.0739H2.59025C3.05662 24.0739 3.45312 23.9812 3.77975 23.7927C4.10962 23.6026 4.3615 23.3459 4.53213 23.0225C4.70923 22.6832 4.79914 22.3051 4.79375 21.9224C4.79375 21.5161 4.70763 21.1489 4.537 20.8222C4.36729 20.4976 4.10782 20.2285 3.7895 20.0471C3.4645 19.8521 3.06963 19.7563 2.6 19.7563V19.7563ZM3.48562 21.9224C3.49148 22.1365 3.44402 22.3487 3.3475 22.5399C3.26091 22.7063 3.12612 22.8428 2.96075 22.9315C2.77158 23.0251 2.56234 23.0708 2.35138 23.0647H1.2805V20.78H2.353C2.70725 20.78 2.98513 20.8775 3.185 21.0741C3.38488 21.2724 3.48562 21.5551 3.48562 21.9224ZM5.46325 19.7563V26.2546H7.83575C8.48738 26.2546 9.0285 26.1246 9.4575 25.8695C9.89163 25.6098 10.2306 25.2172 10.4244 24.7499C10.6356 24.2624 10.7429 23.6741 10.7429 22.9884C10.7429 22.3059 10.6372 21.7241 10.4244 21.2415C10.2329 20.7795 9.89716 20.3919 9.46725 20.1365C9.03825 19.883 8.49388 19.7563 7.83413 19.7563H5.46325V19.7563ZM6.74862 20.8044H7.6635C8.0665 20.8044 8.39475 20.8856 8.65312 21.0514C8.92131 21.2268 9.12365 21.4863 9.22837 21.7891C9.35675 22.1157 9.42012 22.5236 9.42012 23.0128C9.42516 23.3369 9.38802 23.6602 9.30963 23.9748C9.25173 24.2228 9.14331 24.4562 8.99112 24.6605C8.84974 24.8427 8.66241 24.9841 8.44837 25.07C8.19758 25.1638 7.93121 25.2091 7.6635 25.2032H6.74862V20.8044V20.8044ZM12.831 23.6693V26.2546H11.5472V19.7563H15.6878V20.8174H12.831V22.6325H15.4407V23.6693H12.831V23.6693Z" fill="#1B75BB"/>
</svg>
